<svg xmlns="http://www.w3.org/2000/svg" viewBox="0 0 24 24" width="512" height="512" shape-rendering="crispEdges"><rect width="24" height="24" rx="0" fill="#19191c" shape-rendering="geometricPrecision"/><rect x="14" y="4.5" width="1" height="1" fill="#f5b700"/><rect x="8" y="6.5" width="1" height="1" fill="#f5b700"/><rect x="13" y="8.5" width="1" height="1" fill="#f5b700"/><rect x="11" y="10.5" width="2" height="1" fill="#f5b700"/><rect x="10" y="11.5" width="1" height="1" fill="#f5b700"/><rect x="11" y="11.5" width="1" height="1" fill="#ffe48a"/><rect x="12" y="11.5" width="2" height="1" fill="#f5b700"/><rect x="9" y="12.5" width="1" height="1" fill="#f5b700"/><rect x="10" y="12.5" width="2" height="1" fill="#ffe48a"/><rect x="12" y="12.5" width="3" height="1" fill="#f5b700"/><rect x="8" y="13.5" width="2" height="1" fill="#f5b700"/><rect x="10" y="13.5" width="1" height="1" fill="#ffe48a"/><rect x="11" y="13.5" width="2" height="1" fill="#f5b700"/><rect x="13" y="13.5" width="1" height="1" fill="#c98800"/><rect x="14" y="13.5" width="2" height="1" fill="#f5b700"/><rect x="7" y="14.5" width="2" height="1" fill="#f5b700"/><rect x="9" y="14.5" width="1" height="1" fill="#ffe48a"/><rect x="10" y="14.5" width="3" height="1" fill="#f5b700"/><rect x="13" y="14.5" width="1" height="1" fill="#c98800"/><rect x="14" y="14.5" width="3" height="1" fill="#f5b700"/><rect x="6" y="15.5" width="2" height="1" fill="#f5b700"/><rect x="8" y="15.5" width="1" height="1" fill="#ffe48a"/><rect x="9" y="15.5" width="2" height="1" fill="#f5b700"/><rect x="11" y="15.5" width="1" height="1" fill="#c98800"/><rect x="12" y="15.5" width="5" height="1" fill="#f5b700"/><rect x="17" y="15.5" width="1" height="1" fill="#c98800"/><rect x="5" y="16.5" width="1" height="1" fill="#f5b700"/><rect x="6" y="16.5" width="1" height="1" fill="#ffe48a"/><rect x="7" y="16.5" width="4" height="1" fill="#f5b700"/><rect x="11" y="16.5" width="1" height="1" fill="#c98800"/><rect x="12" y="16.5" width="3" height="1" fill="#f5b700"/><rect x="15" y="16.5" width="1" height="1" fill="#c98800"/><rect x="16" y="16.5" width="3" height="1" fill="#f5b700"/><rect x="4" y="17.5" width="14" height="1" fill="#f5b700"/><rect x="18" y="17.5" width="2" height="1" fill="#c98800"/></svg>
